<svg id="Ebene_1" data-name="Ebene 1" xmlns="http://www.w3.org/2000/svg" viewBox="0 0 338.62 164.55"><defs><style>.cls-1{fill:none;stroke:#a63736;stroke-linecap:round;stroke-width:5px;}.cls-1,.cls-2{stroke-miterlimit:10;}.cls-2{font-size:70px;fill:#231f20;stroke:#231f20;stroke-width:0.25px;font-family:PTMono-Regular, PT Mono;}</style></defs><line class="cls-1" x1="74.5" y1="74.5" x2="110.5" y2="74.5"/><line class="cls-1" x1="74.5" y1="65.5" x2="110.5" y2="65.5"/><line class="cls-1" x1="74.5" y1="56.5" x2="110.5" y2="56.5"/><line class="cls-1" x1="74.5" y1="47.5" x2="110.5" y2="47.5"/><line class="cls-1" x1="101.5" y1="38.5" x2="38.5" y2="38.5"/><line class="cls-1" x1="65.5" y1="47.5" x2="29.5" y2="47.5"/><line class="cls-1" x1="56.5" y1="56.5" x2="20.5" y2="56.5"/><line class="cls-1" x1="47.5" y1="65.5" x2="11.5" y2="65.5"/><line class="cls-1" x1="38.5" y1="74.5" x2="2.5" y2="74.5"/><line class="cls-1" x1="47.5" y1="29.5" x2="110.5" y2="29.5"/><line class="cls-1" x1="56.5" y1="20.5" x2="110.5" y2="20.5"/><line class="cls-1" x1="65.5" y1="11.5" x2="110.5" y2="11.5"/><line class="cls-1" x1="74.5" y1="2.5" x2="110.5" y2="2.5"/><line class="cls-1" x1="119.5" y1="74.5" x2="155.5" y2="74.5"/><line class="cls-1" x1="119.5" y1="65.5" x2="155.5" y2="65.5"/><line class="cls-1" x1="119.5" y1="56.5" x2="155.5" y2="56.5"/><line class="cls-1" x1="119.5" y1="47.5" x2="155.5" y2="47.5"/><line class="cls-1" x1="200.5" y1="38.5" x2="128.5" y2="38.5"/><line class="cls-1" x1="119.5" y1="29.5" x2="155.5" y2="29.5"/><line class="cls-1" x1="119.5" y1="20.5" x2="155.5" y2="20.5"/><line class="cls-1" x1="119.5" y1="11.5" x2="155.5" y2="11.5"/><line class="cls-1" x1="200.5" y1="2.5" x2="128.5" y2="2.5"/><line class="cls-1" x1="173.5" y1="29.5" x2="209.5" y2="29.5"/><line class="cls-1" x1="182.5" y1="20.5" x2="218.5" y2="20.5"/><line class="cls-1" x1="173.5" y1="11.5" x2="209.5" y2="11.5"/><line class="cls-1" x1="317.5" y1="74.5" x2="245.5" y2="74.5"/><line class="cls-1" x1="317.5" y1="38.5" x2="245.5" y2="38.5"/><line class="cls-1" x1="290.5" y1="65.5" x2="326.5" y2="65.5"/><line class="cls-1" x1="299.5" y1="56.5" x2="335.5" y2="56.5"/><line class="cls-1" x1="290.5" y1="47.5" x2="326.5" y2="47.5"/><line class="cls-1" x1="236.5" y1="65.5" x2="272.5" y2="65.5"/><line class="cls-1" x1="236.5" y1="29.5" x2="272.5" y2="29.5"/><line class="cls-1" x1="227.5" y1="20.5" x2="263.5" y2="20.5"/><line class="cls-1" x1="236.5" y1="11.5" x2="272.5" y2="11.5"/><line class="cls-1" x1="317.5" y1="2.5" x2="245.5" y2="2.5"/><line class="cls-1" x1="290.5" y1="11.5" x2="326.5" y2="11.5"/><line class="cls-1" x1="227.5" y1="56.5" x2="263.5" y2="56.5"/><text class="cls-2" transform="translate(2.5 146.5)">Database</text><text x="-6.5" y="-6.5"/></svg>